<svg xmlns="http://www.w3.org/2000/svg" width="948" height="1091"><g fill="none" fill-rule="evenodd"><path fill="#FFF" stroke="#B8E986" stroke-dasharray="10 10" stroke-width="4" d="M2 26h944v1063H2V26z"/><path fill="#FFF" stroke="#979797" stroke-dasharray="10 10" stroke-width="4" d="M474 1064c185.567676 0 336-150.432324 336-336S659.567676 392 474 392 138 542.432324 138 728s150.432324 336 336 336z"/><g transform="translate(149 624)"><circle cx="116" cy="116" r="116" stroke="#B8E986" stroke-width="4"/><text fill="#4A4A4A" font-family="Raleway-Medium, Raleway" font-size="16" font-weight="400" letter-spacing="1"><tspan x="89.168" y="120">Stores</tspan></text></g><g transform="translate(361 835)"><circle cx="116" cy="116" r="116" stroke="#B8E986" stroke-width="4"/><text fill="#4A4A4A" font-family="Raleway-Medium, Raleway" font-size="16" font-weight="400" letter-spacing="1"><tspan x="91.188" y="120">Views</tspan></text></g><g transform="translate(572 624)"><circle cx="116" cy="116" r="116" stroke="#B8E986" stroke-width="4"/><text fill="#4A4A4A" font-family="Raleway-Medium, Raleway" font-size="16" font-weight="400" letter-spacing="1"><tspan x="80.28" y="120">Services</tspan></text></g><g transform="translate(361 412)"><circle cx="116" cy="116" r="116" stroke="#B8E986" stroke-width="4"/><text fill="#4A4A4A" font-family="Raleway-Medium, Raleway" font-size="16" font-weight="400" letter-spacing="1"><tspan x="84.66" y="120">Actions</tspan></text></g><text fill="#4A4A4A" font-family="Raleway-Medium, Raleway" font-size="16" font-weight="400" letter-spacing="1" transform="translate(2 -3)"><tspan x="445" y="747">Module</tspan></text><g transform="translate(416 341)"><circle cx="61" cy="61" r="61" fill="#B8E986"/><text fill="#4A4A4A" font-family="Raleway-Medium, Raleway" font-size="16" font-weight="400" letter-spacing="1"><tspan x="25.552" y="65">Initialize</tspan></text></g><path stroke="#979797" stroke-dasharray="6 15" stroke-linecap="square" stroke-width="4" d="M670.5 181.5l-196-62m-191 62l196-62m-2 42v204"/><g transform="translate(416 62)"><circle cx="61" cy="61" r="61" fill="#B8E986"/><text fill="#4A4A4A" font-family="Raleway-Medium, Raleway" font-size="16" font-weight="400" letter-spacing="1"><tspan x="28.324" y="65">Context</tspan></text></g><path fill="#F6F6F6" stroke="#979797" stroke-dasharray="10 10" stroke-width="4" d="M168 402c77.87215 0 141-63.12785 141-141 0-77.8721497-63.12785-141-141-141-77.8721497 0-141 63.1278503-141 141 0 77.87215 63.1278503 141 141 141z"/><text fill="#4A4A4A" font-family="Raleway-Medium, Raleway" font-size="16" font-weight="400" letter-spacing="1" transform="translate(27 120)"><tspan x="108.932" y="112">Module</tspan></text><path fill="#F6F6F6" stroke="#979797" stroke-dasharray="10 10" stroke-width="4" d="M788 405c77.87215 0 141-63.12785 141-141 0-77.8721497-63.12785-141-141-141-77.8721497 0-141 63.1278503-141 141 0 77.87215 63.1278503 141 141 141z"/><text fill="#4A4A4A" font-family="Raleway-Medium, Raleway" font-size="16" font-weight="400" letter-spacing="1" transform="translate(647 123)"><tspan x="108.932" y="112">Module</tspan></text><g transform="translate(617 129)"><circle cx="61" cy="61" r="61" fill="#B8E986"/><text fill="#4A4A4A" font-family="Raleway-Medium, Raleway" font-size="16" font-weight="400" letter-spacing="1"><tspan x="25.552" y="65">Initialize</tspan></text></g><g transform="translate(219 131)"><circle cx="61" cy="61" r="61" fill="#B8E986"/><text fill="#4A4A4A" font-family="Raleway-Medium, Raleway" font-size="16" font-weight="400" letter-spacing="1"><tspan x="25.552" y="65">Initialize</tspan></text></g><text fill="#4A4A4A" font-family="Raleway-Medium, Raleway" font-size="16" font-weight="400" letter-spacing="1" transform="translate(2 -3)"><tspan x="0" y="15">App</tspan></text></g></svg>