<svg xmlns="http://www.w3.org/2000/svg" width="405" height="854"><g fill="none" fill-rule="evenodd"><path fill="#FFF" stroke="#B8E986" stroke-dasharray="10 9" stroke-width="4" d="M2 22h399v373H2V22zm2 436h399v394H4V458z"/><path stroke="#979797" stroke-dasharray="6 15" stroke-linecap="square" stroke-width="4" d="M208.5 108.5v426"/><path fill="#F6F6F6" stroke="#979797" stroke-dasharray="10 10" stroke-width="4" d="M208 817c77.87215 0 141-63.12785 141-141 0-77.8721497-63.12785-141-141-141-77.8721497 0-141 63.1278503-141 141 0 77.87215 63.1278503 141 141 141z"/><text fill="#4A4A4A" font-family="Raleway-Medium, Raleway" font-size="16" font-weight="400" letter-spacing="1" transform="translate(67 535)"><tspan x="108.932" y="112">Module</tspan></text><g transform="translate(147 480)"><circle cx="61" cy="61" r="61" fill="#B8E986"/><text fill="#4A4A4A" font-family="Raleway-Medium, Raleway" font-size="16" font-weight="400" letter-spacing="1"><tspan x="25.552" y="65">Initialize</tspan></text></g><g transform="translate(147 251)"><circle cx="61" cy="61" r="61" fill="#B8E986"/><text fill="#4A4A4A" font-family="Raleway-Medium, Raleway" font-size="16" font-weight="400" letter-spacing="1"><tspan x="6.144" y="65">LazyInitialize</tspan></text></g><g transform="translate(147 42)"><circle cx="61" cy="61" r="61" fill="#B8E986"/><text fill="#4A4A4A" font-family="Raleway-Medium, Raleway" font-size="16" font-weight="400" letter-spacing="1"><tspan x="28.324" y="65">Context</tspan></text></g><text fill="#4A4A4A" font-family="Raleway-Medium, Raleway" font-size="16" font-weight="400" letter-spacing="1" transform="translate(2 -3)"><tspan x="0" y="15">App</tspan></text><text fill="#4A4A4A" font-family="Raleway-Medium, Raleway" font-size="16" font-weight="400" letter-spacing="1" transform="translate(2 -3)"><tspan x="3" y="451">Chunk</tspan></text></g></svg>